Coordinates
version=1
nRows=14
nColumns=24
inDegrees=yes

Units are S.I. units (second, meters, Newtons, ...)
Angles are in degrees.

endheader
time	pelvis_tilt	pelvis_list	pelvis_rotation	pelvis_tx	pelvis_ty	pelvis_tz	hip_flexion_r	hip_adduction_r	hip_rotation_r	knee_angle_r	ankle_angle_r	subtalar_angle_r	mtp_angle_r	hip_flexion_l	hip_adduction_l	hip_rotation_l	knee_angle_l	ankle_angle_l	subtalar_angle_l	mtp_angle_l	lumbar_extension	lumbar_bending	lumbar_rotation
      4.58500000	     11.55910870	      9.36244896	     13.51485028	     -0.05523159	      0.73405889	     -0.26808120	     13.41797658	    -12.31503671	    -13.09985089	    -11.70563380	     15.87535047	     15.67451501	      0.00000000	    -27.06057808	      3.91787323	      6.59794206	    -27.36894684	     26.63871410	     14.24426201	      0.00000000	    -33.91380784	     -2.38031569	    -10.51846717
      4.59000000	     11.70862077	      8.92587363	     13.53313171	     -0.04658976	      0.73371516	     -0.26759468	     13.49888251	    -11.79985252	    -13.41125494	    -13.13219034	     15.44272321	     15.03553900	      0.00000000	    -26.59658775	      3.41777477	      6.59115579	    -29.54007698	     25.37249794	     13.63264638	      0.00000000	    -33.83367001	     -1.93973577	    -10.19255669
      4.59500000	     11.84006076	      8.43840366	     13.44419735	     -0.03795929	      0.73337637	     -0.26701801	     13.63718524	    -11.20347488	    -13.45768735	    -14.60590757	     15.02794863	     14.32862511	      0.00000000	    -26.02844287	      2.92679085	      6.41825631	    -31.78772711	     23.91029627	     13.06093288	      0.00000000	    -33.73267308	     -1.50568607	     -9.72540812
      4.60000000	     11.91782222	      7.95987669	     13.33277276	     -0.02942391	      0.73303658	     -0.26633480	     13.85256719	    -10.59501763	    -13.26698045	    -16.14146134	     14.70015851	     13.38547588	      0.00000000	    -25.31085540	      2.46886716	      6.21793270	    -34.12850495	     22.23835175	     12.50417778	      0.00000000	    -33.60631145	     -1.12013333	     -9.30243880
      4.60500000	     12.03207063	      7.41469551	     13.21781939	     -0.02093832	      0.73278643	     -0.26570614	     14.00935951	     -9.91002740	    -13.08863161	    -17.65565586	     14.42257018	     12.60680435	      0.00000000	    -24.55137611	      1.96262474	      6.02090808	    -36.51336336	     20.45376321	     11.80585171	      0.00000000	    -33.51569170	     -0.63971917	     -8.85203658
      4.61000000	     12.13176197	      6.83649221	     13.10330940	     -0.01254427	      0.73258098	     -0.26505673	     14.16125436	     -9.17326859	    -12.83047024	    -19.13392443	     14.23465832	     11.85743909	      0.00000000	    -23.69023352	      1.43810424	      5.82592568	    -38.94615448	     18.56321457	     11.04285480	      0.00000000	    -33.42811403	     -0.13329399	     -8.40854446
      4.61500000	     12.21781232	      6.22456438	     13.00100241	     -0.00423737	      0.73242722	     -0.26440846	     14.29380939	     -8.38423739	    -12.52660194	    -20.55003755	     14.15417849	     11.15045694	      0.00000000	    -22.73818105	      0.89098370	      5.65670291	    -41.39841395	     16.61341844	     10.22176884	      0.00000000	    -33.34184640	      0.40920624	     -7.97907936
      4.62000000	     12.28893144	      5.58344908	     12.91622197	      0.00397621	      0.73232455	     -0.26376995	     14.39923465	     -7.54837365	    -12.19836395	    -21.88256625	     14.18801795	     10.50134070	      0.00000000	    -21.70119136	      0.32400164	      5.52172506	    -43.84834357	     14.66685463	      9.35994595	      0.00000000	    -33.25642801	      0.98557178	     -7.56957084
      4.62500000	     12.34419026	      4.92025818	     12.85717066	      0.01209699	      0.73227900	     -0.26315660	     14.46680670	     -6.67431977	    -11.86733231	    -23.10922299	     14.34006468	      9.91054844	      0.00000000	    -20.58686521	     -0.25725537	      5.43819069	    -46.27384317	     12.78424131	      8.47392177	      0.00000000	    -33.17224082	      1.59290589	     -7.18716124
      4.63000000	     12.38208289	      4.24180119	     12.82575123	      0.02012180	      0.73228882	     -0.26257246	     14.49243580	     -5.77072641	    -11.54604739	    -24.21674567	     14.60452477	      9.37727348	      0.00000000	    -19.39902870	     -0.84594000	      5.40632647	    -48.65923794	     11.03284121	      7.58704697	      0.00000000	    -33.08615353	      2.22410152	     -6.83842502
      4.63500000	     12.50311152	      3.53289758	     12.80504402	      0.02810688	      0.73245539	     -0.26208710	     14.35632170	     -4.82395756	    -11.33770046	    -25.18692942	     14.99637997	      9.10127409	      0.00000000	    -18.28206061	     -1.46429285	      5.41656875	    -50.93584431	      9.47533566	      6.66145230	      0.00000000	    -33.09230208	      2.92540840	     -6.47516926
      4.64000000	     12.42112339	      2.87825107	     12.86415230	      0.03588686	      0.73251526	     -0.26156123	     14.36680598	     -3.92509634	    -10.99344299	    -26.01200550	     15.43610484	      8.45869570	      0.00000000	    -16.85263612	     -1.99796177	      5.54327124	    -53.23928229	      8.13558071	      5.86682504	      0.00000000	    -32.92562354	      3.53580597	     -6.24051611
      4.64500000	     12.42673817	      2.20802973	     12.92736925	      0.04363688	      0.73273766	     -0.26114764	     14.20541672	     -3.00155866	    -10.76893565	    -26.68615089	     15.97674894	      8.06770956	      0.00000000	    -15.51150176	     -2.54016675	      5.69969882	    -55.41121092	      7.07353633	      5.06132745	      0.00000000	    -32.85175734	      4.19987911	     -5.98167484
      4.65000000	     12.42458723	      1.56168017	     13.02153876	      0.05129836	      0.73304588	     -0.26080431	     13.97258341	     -2.09676677	    -10.57921338	    -27.20559704	     16.57461335	      7.69999387	      0.00000000	    -14.13556678	     -3.04120553	      5.91128430	    -57.48664885	      6.29452167	      4.29925708	      0.00000000	    -32.78696414	      4.85520865	     -5.75214245
